<svg width="44" height="160" viewBox="0 0 44 160" fill="none" xmlns="http://www.w3.org/2000/svg">
<path d="M29 0.479998H34.36V37.64H29V0.479998ZM14.4 3.08C20 3.08 24.12 8.2 24.12 16.28C24.12 24.44 20 29.56 14.4 29.56C8.8 29.56 4.68 24.44 4.68 16.28C4.68 8.2 8.8 3.08 14.4 3.08ZM14.4 7.92C11.64 7.92 9.76 10.84 9.76 16.28C9.76 21.8 11.64 24.76 14.4 24.76C17.16 24.76 19 21.8 19 16.28C19 10.84 17.16 7.92 14.4 7.92ZM10.64 44.12H14.56V46.08C14.56 50.36 12.08 54.48 6.4 55.96L4.24 52.08C8.56 51.04 10.64 48.44 10.64 46.08V44.12ZM12.2 44.12H15.92V46.08C15.92 48.4 17.96 51.12 21.96 52.32L20.32 56.2C14.48 54.72 12.2 50.16 12.2 46.08V44.12ZM24.72 44.12H28.44V46.08C28.44 50.24 26.16 54.72 20.32 56.2L18.68 52.32C22.72 51.16 24.72 48.48 24.72 46.08V44.12ZM26.16 44.12H30.08V46.08C30.08 48.56 32.12 51.08 36.48 52.08L34.28 55.96C28.6 54.52 26.16 50.52 26.16 46.08V44.12ZM5.84 41.8H19.6V46H5.84V41.8ZM21.08 41.8H34.8V46H21.08V41.8ZM3.6 57.64H37.12V61.88H3.6V57.64ZM7.48 64.36H33.08V77.16H7.48V64.36ZM27.88 68.56H12.72V72.96H27.88V68.56ZM29.04 80.56H34.4V107.16H29.04V80.56ZM9.72 112.68H35.32V116.92H9.72V112.68ZM9.72 104.48H15.04V114.4H9.72V104.48ZM14.24 82.88C19.92 82.88 24.28 86.8 24.28 92.28C24.28 97.72 19.92 101.68 14.24 101.68C8.56 101.68 4.16 97.72 4.16 92.28C4.16 86.8 8.56 82.88 14.24 82.88ZM14.24 87.48C11.48 87.48 9.36 89.24 9.36 92.28C9.36 95.28 11.48 97.04 14.24 97.04C16.96 97.04 19.08 95.28 19.08 92.28C19.08 89.24 16.96 87.48 14.24 87.48ZM27.28 120.48H32.64V157.52H27.28V120.48ZM31.24 134.64H37.76V139H31.24V134.64ZM17.56 124.32H22.76C22.76 135.44 18.52 144.96 6.2 151.16L3.24 147.12C12.96 142.08 17.56 135.28 17.56 125.24V124.32ZM5.28 124.32H20.28V128.6H5.28V124.32Z" fill="black"/>
<circle cx="15" cy="92" r="8.5" fill="white" stroke="#00C720" stroke-width="5"/>
<circle cx="40" cy="153" r="2" fill="white" stroke="#DB1717" stroke-width="4"/>
<circle cx="14" cy="17" r="10" fill="white" stroke="#0B5CFB" stroke-width="8"/>
</svg>
